<svg height="511pt" viewBox="1 -58 511.999 511" width="511pt" xmlns="http://www.w3.org/2000/svg"><path d="m15 395.421875c-8.285156 0-15-6.714844-15-15v-46.734375c0-45.664062 30.15625-84.492188 74.457031-95.84375l51.867188-13.292969c6.171875-1.574219 12.429687.949219 15.898437 5.859375l32.949219 43.421875 32.894531-43.34375c3.722656-4.910156 9.894532-6.867187 15.515625-5.464843l51.863281 12.984374c7.640626 1.917969 14.851563 4.644532 21.554688 8.078126v-50.585938c0-8.285156 6.714844-15 15-15h185c8.28125 0 15 6.714844 15 15v185c0 8.285156-6.71875 15-15 15-160.667969 0-321.332031-.078125-482-.078125zm160.171875-394.921875c-55.777344 0-101 45.222656-101 101s45.222656 101 101 101 101-45.222656 101-101-45.222656-101-101-101zm50.207031 50.792969c27.726563 27.726562 27.726563 72.6875 0 100.414062-27.726562 27.722657-72.683594 27.722657-100.410156 0-27.726562-27.726562-27.726562-72.6875 0-100.414062 27.726562-27.722657 72.683594-27.722657 100.410156 0zm225.015625 159.207031v49.464844c0 10.601562-11.316406 19.265625-22.949219 12.71875l-22.851562-11.484375-24.121094 12.125c-10.042968 5.035156-21.628906-2.492188-21.621094-13.359375l-.058593-49.464844h-31.792969v155h155v-155zm-30 2h-31.601562v23.210938c16.535156-8.3125 14.90625-8.390626 31.601562 0zm-123.394531 69.460938c-8.210938-7.101563-18.105469-12.199219-28.820312-14.890626l-42.320313-10.632812c-5.511719 7.261719-38 51.210938-41.664063 53.984375-6.566406 4.984375-15.933593 3.699219-20.917968-2.871094l-39.15625-51.597656-42.28125 10.835937c-31.023438 7.949219-51.839844 34.8125-51.839844 66.898438v31.734375h267zm0 0" fill-rule="evenodd"/></svg>