<svg viewBox="-26 0 512 512" xmlns="http://www.w3.org/2000/svg"><path d="m109.921875 204.855469c0 52.34375 42.585937 94.933593 94.933594 94.933593 52.34375 0 94.933593-42.589843 94.933593-94.933593 0-52.347657-42.589843-94.933594-94.933593-94.933594-52.347657 0-94.933594 42.585937-94.933594 94.933594zm149.894531 0c0 30.304687-24.65625 54.960937-54.960937 54.960937-30.304688 0-54.960938-24.65625-54.960938-54.960937 0-30.304688 24.65625-54.960938 54.960938-54.960938 30.304687 0 54.960937 24.65625 54.960937 54.960938zm200.738282 280.4375-55.773438-62.109375c10.640625-14.773438 16.921875-32.890625 16.921875-52.445313 0-49.59375-40.347656-89.9375-89.9375-89.9375s-89.9375 40.34375-89.9375 89.9375c0 49.589844 40.347656 89.933594 89.9375 89.933594 15.59375 0 30.273437-3.992187 43.074219-11.003906l55.976562 62.332031zm-178.753907-114.554688c0-27.550781 22.414063-49.964843 49.964844-49.964843s49.964844 22.414062 49.964844 49.964843-22.414063 49.964844-49.964844 49.964844-49.964844-22.414063-49.964844-49.964844zm-31.25 101.3125c-18.992187 17.671875-32.121093 28.332031-33.136719 29.152344l-12.558593 10.144531-12.5625-10.144531c-1.941407-1.570313-48.113281-39.058594-94.941407-92.824219-64.597656-74.164062-97.351562-140.734375-97.351562-197.859375v-5.664062c0-112.957031 91.898438-204.855469 204.855469-204.855469s204.855469 91.898438 204.855469 204.855469v5.664062c0 16.203125-2.644532 33.171875-7.894532 50.859375-11.234375-7.222656-23.652344-12.753906-36.886718-16.25 3.082031-11.707031 4.808593-23.300781 4.808593-34.609375v-5.664062c0-90.917969-73.96875-164.882813-164.882812-164.882813-90.917969 0-164.882813 73.964844-164.882813 164.882813v5.664062c0 96.535157 124.378906 213.394531 164.882813 248.882813 5.054687-4.429688 11.417969-10.125 18.683593-16.894532 7.441407 11.183594 16.566407 21.152344 27.011719 29.542969zm0 0"/></svg>